<?xml version="1.0" encoding="utf-8"?>
<!-- Generator: Adobe Illustrator 24.1.3, SVG Export Plug-In . SVG Version: 6.00 Build 0)  -->
<svg version="1.1" baseProfile="tiny" id="Capa_1" xmlns="http://www.w3.org/2000/svg" xmlns:xlink="http://www.w3.org/1999/xlink"
	 x="0px" y="0px" viewBox="0 0 241 88" overflow="visible" xml:space="preserve">
<text transform="matrix(1 0 0 1 23.9453 61.7671)" font-family="'ColonnaMT'" font-size="72px">F</text>
<text transform="matrix(1 0 0 1 57.8359 61.7671)" font-family="'ColonnaMT'" font-size="72px">a</text>
<text transform="matrix(1 0 0 1 88.5977 61.7671)" font-family="'ColonnaMT'" font-size="72px">m</text>
<text transform="matrix(1 0 0 1 147.0977 61.7671)" font-family="'ColonnaMT'" font-size="72px">i</text>
<linearGradient id="SVGID_1_" gradientUnits="userSpaceOnUse" x1="2.5" y1="42.9637" x2="237.5" y2="42.9637">
	<stop  offset="0" style="stop-color:#CCE0F4"/>
	<stop  offset="0.0641" style="stop-color:#C3DCF2"/>
	<stop  offset="0.1706" style="stop-color:#A9D2EE"/>
	<stop  offset="0.3066" style="stop-color:#80C2E7"/>
	<stop  offset="0.4649" style="stop-color:#47ACDE"/>
	<stop  offset="0.5674" style="stop-color:#1E9CD7"/>
	<stop  offset="0.8652" style="stop-color:#0075BE"/>
	<stop  offset="0.9944" style="stop-color:#005B97"/>
</linearGradient>
<path fill="#FFCEA4" stroke="url(#SVGID_1_)" stroke-miterlimit="10" d="M237,65c0.44,8.33-217.05,36.15-232.96,1
	C-0.88,55.12,12.8,36.6,21.3,28C36.84,12.27,56.05,8.42,54.58,5c-1.51-3.51-23.89-4.42-38.21,6C4.71,19.49,1.44,33.27,5.27,44
	c1.82,5.09,5.78,11.02,14.79,17c29.64,19.69,88.49,23.09,135.58,9c10.15-3.04,26.85-9.01,50.54-9C218.32,61,236.87,62.58,237,65z"/>
</svg>
